#include <stdio.h>

int main()
{

    unsigned char midi_hex[] = {0x4d, 0x54, 0x68, 0x64, 0x00, 0x00, 0x00, 0x06, 0x00, 0x01, 0x00, 0x02, 0x00, 0x78, 0x4d, 0x54, 0x72, 0x6b, 0x00, 0x00, 0x00, 0x29, 0x00, 0xf0, 0x0a, 0x41, 0x10, 0x42, 0x12, 0x40, 0x00, 0x7f, 0x00, 0x41, 0xf7, 0x00, 0xff, 0x7f, 0x14, 0x4a, 0x41, 0x5a, 0x32, 0x01, 0x00, 0x00, 0x00, 0x00, 0x00, 0x00, 0x00, 0x00, 0x00, 0x00, 0x00, 0x00, 0x00, 0x00, 0x00, 0x00, 0xff, 0x2f, 0x00, 0x4d, 0x54, 0x72, 0x6b, 0x00, 0x00, 0x00, 0x23, 0x00, 0xff, 0x7f, 0x14, 0x4a, 0x41, 0x5a, 0x32, 0x01, 0x00, 0x00, 0x00, 0x00, 0x00, 0x00, 0x00, 0x00, 0x00, 0x00, 0x00, 0x00, 0x00, 0x00, 0x00, 0x00, 0x90, 0x30, 0x40, 0x38, 0x30, 0x00, 0x00, 0xff, 0x2f, 0x00};
    FILE *fp = fopen("c42.mid", "wb");

    if (fp == NULL)
    {
        return 1;
    }

    fwrite(&midi_hex, sizeof(midi_hex), 1, fp);
    fclose(fp);

    return 0;
}
